<svg width="204" height="83" viewBox="0 0 204 83" fill="none" xmlns="http://www.w3.org/2000/svg">
<path d="M51.4802 47.0632C51.1596 47.0632 50.9102 46.9563 50.6964 46.7782C50.4827 46.6001 50.3758 46.3507 50.3758 46.03V17.4216C50.3758 16.8159 49.877 16.3171 49.2714 16.3171H46.0649H41.2197H40.1152V26.4352V51.481C40.1152 54.438 42.5379 56.825 45.5305 56.825H70.7544V47.0988H51.4802V47.0632Z" fill="white"/>
<path d="M111.334 20.5922C110.907 19.8084 110.479 19.0603 109.838 18.4546C109.232 17.8489 108.484 17.3858 107.629 17.0295C106.774 16.6733 105.883 16.4951 104.921 16.4951H85.6826C84.7207 16.4951 83.83 16.6733 82.975 17.0295C82.1199 17.3858 81.3718 17.8846 80.7661 18.4546C80.1248 19.0603 79.626 19.7372 79.2698 20.5922C78.9135 21.4116 78.7354 22.2667 78.7354 23.193V55.8629C78.7354 56.5755 79.1273 56.9673 79.8754 56.9673H88.0696C88.8178 56.9673 89.2097 56.6111 89.2097 55.8629V41.9684C89.2097 41.6478 89.3166 41.3984 89.5303 41.1846C89.7441 40.9708 90.0291 40.864 90.3141 40.864H100.361C100.682 40.864 100.931 40.9708 101.145 41.1846C101.358 41.3984 101.43 41.6478 101.43 41.9684V55.8629C101.43 56.1836 101.537 56.4329 101.75 56.6467C101.964 56.8605 102.249 56.9673 102.534 56.9673H110.764C111.085 56.9673 111.334 56.8605 111.548 56.6467C111.762 56.4329 111.868 56.1836 111.868 53.5115V23.2642C111.904 24.7249 111.868 21.6254 111.334 20.5922ZM101.572 33.0617H89.3522V26.6132C89.3522 26.0431 89.851 25.5444 90.4566 25.5444H100.503C101.109 25.5444 101.608 26.0075 101.608 26.6132V33.0617H101.572Z" fill="white"/>
<path d="M126.939 16.4951C126.013 16.4951 125.122 16.6733 124.303 17.0295C123.483 17.3858 122.735 17.8846 122.129 18.4546C121.524 19.0603 121.025 19.7372 120.669 20.5922C120.312 21.4116 120.134 22.2667 120.134 23.193V34.3086C120.134 35.2349 120.312 36.09 120.669 36.8737C121.025 37.6932 121.488 38.3701 122.129 39.0114C122.735 39.617 123.483 40.1158 124.303 40.4364C125.122 40.7927 126.013 40.9352 126.939 40.9352H141.047C141.368 40.9352 141.617 41.0421 141.831 41.2559C142.045 41.4696 142.152 41.719 142.152 42.0397V46.4218C142.152 46.7424 142.045 46.9918 141.831 47.1699C141.617 47.3481 141.368 47.455 141.047 47.455H120.027V56.9317H144.503C145.429 56.9317 146.32 56.7536 147.139 56.4329C147.959 56.0767 148.707 55.6135 149.313 55.0079C149.918 54.4022 150.382 53.6897 150.773 52.8702C151.13 52.0508 151.343 51.1958 151.343 50.2695V39.4745C151.343 38.5482 151.165 37.6932 150.773 36.9094C150.417 36.0899 149.918 35.413 149.313 34.7717C148.707 34.1661 147.995 33.6673 147.139 33.3467C146.32 32.9904 145.429 32.8479 144.503 32.8479H130.359C130.039 32.8479 129.789 32.741 129.611 32.5273C129.433 32.3135 129.326 32.0641 129.326 31.7435V26.7557C129.326 26.435 129.433 26.1857 129.611 25.9719C129.789 25.7581 130.074 25.6513 130.359 25.6513H151.379V16.4951H126.939Z" fill="white"/>
<path d="M10.2962 55.8631V41.2561C10.2962 41.1136 10.4387 40.9711 10.5812 40.9711H21.9818C22.3025 40.9711 22.5519 40.8642 22.73 40.6504C22.9081 40.4367 23.015 40.1873 23.015 39.8666V33.9169C23.015 33.5963 22.9081 33.3469 22.73 33.1331C22.5519 32.9194 22.2669 32.8125 21.9818 32.8125H10.5812C10.4031 32.8125 10.2962 32.67 10.2962 32.5275V26.7915C10.2962 26.649 10.4031 26.5778 10.5812 26.5778H32.4562V16.4597H5.91408C2.63639 16.4597 0 19.0605 0 22.2669V55.8631C0 56.4688 0.498777 56.9676 1.10444 56.9676H9.15613C9.83304 56.9676 10.2962 56.4688 10.2962 55.8631Z" fill="white"/>
<path d="M181.199 41.2561C181.377 41.4342 181.484 41.6836 181.484 42.0042V55.8631C181.484 56.1838 181.591 56.4332 181.804 56.6469C182.018 56.8607 182.267 56.9676 182.588 56.9676H190.675C190.996 56.9676 191.245 56.8607 191.459 56.6469C191.673 56.4332 191.78 56.1838 191.78 55.8631V17.5642C191.78 17.2435 191.673 16.9941 191.459 16.7804C191.245 16.5666 190.996 16.4597 190.675 16.4597H182.588C182.267 16.4597 182.018 16.5666 181.804 16.7804C181.591 16.9941 181.484 17.2435 181.484 17.5642V31.7437C181.484 32.0643 181.377 32.3137 181.199 32.5275C181.021 32.7412 180.736 32.8481 180.451 32.8481H170.689C169.941 32.8481 169.584 32.4918 169.584 31.7437V17.5642C169.584 16.8516 169.228 16.4597 168.48 16.4597H159.288L159.359 55.8275C159.359 56.5401 159.716 56.932 160.464 56.932H168.515C169.264 56.932 169.62 56.5757 169.62 55.8275V41.9686C169.62 41.648 169.727 41.3986 169.941 41.2205C170.154 41.0423 170.404 40.9354 170.724 40.9354H180.451C180.771 40.9711 181.021 41.078 181.199 41.2561Z" fill="white"/>
<path d="M191.459 0.0356183H189.001C188.894 0.0356183 188.823 0.0712518 188.752 0.142506C188.68 0.21376 188.645 0.285007 188.645 0.391888V1.21131L188.68 7.90918V8.94236C188.68 9.04924 188.645 9.1205 188.609 9.19175C188.538 9.26301 188.467 9.29863 188.395 9.29863H184.904C184.797 9.29863 184.726 9.26301 184.655 9.19175C184.583 9.1205 184.548 9.04924 184.548 8.94236V7.94481L184.512 1.92385V0.391888C184.512 0.285007 184.476 0.21376 184.405 0.142506C184.334 0.0712518 184.263 0.0356183 184.156 0.0356183H181.733C181.626 0.0356183 181.555 0.0712518 181.484 0.142506C181.413 0.21376 181.377 0.285007 181.377 0.391888V1.4607L181.413 9.29863V9.90429C181.413 10.0112 181.413 10.1181 181.448 10.2249C181.484 10.3318 181.519 10.4387 181.555 10.51L183.194 12.1132C183.265 12.1488 183.372 12.1844 183.479 12.22C183.586 12.2557 183.693 12.2557 183.8 12.2557H184.263H188.11H189.393C189.5 12.2557 189.607 12.2557 189.714 12.22C189.821 12.1844 189.927 12.1488 190.034 12.1132L191.638 10.51C191.673 10.4387 191.709 10.3674 191.709 10.2606C191.744 10.1537 191.744 10.0468 191.744 9.97555V9.93992L191.709 1.71009V0.463146C191.709 0.356265 191.673 0.285007 191.602 0.213753C191.638 0.0712452 191.531 0.0356183 191.459 0.0356183ZM202.254 0.142506C202.183 0.106879 202.076 0.0712452 201.934 0.0356183C201.827 -8.69852e-06 201.684 0 201.613 0H201.186H200.295L194.915 0.0356183C194.808 0.0356183 194.737 0.0712518 194.666 0.142506C194.595 0.21376 194.559 0.285007 194.559 0.391888V3.02829L194.595 10.2249V11.8994C194.595 12.1132 194.701 12.22 194.915 12.22H197.338C197.552 12.22 197.658 12.1132 197.658 11.8994V9.04925C197.658 8.94237 197.694 8.87111 197.765 8.83548C197.837 8.76423 197.908 8.76423 198.015 8.76423H199.832H201.114H201.613C201.72 8.76423 201.827 8.76423 201.934 8.72861C202.041 8.69298 202.147 8.65735 202.254 8.62172L203.858 7.01851C203.893 6.94725 203.929 6.84037 203.964 6.69787C204 6.59098 204 6.48411 204 6.37722V6.05658V2.9214V2.42263C204 2.31575 204 2.20887 203.964 2.10199C203.929 1.99511 203.893 1.88822 203.858 1.81697L202.254 0.142506ZM197.587 5.84282V2.7789H201.043V5.84282H197.587Z" fill="#77B82D"/>
<path d="M35.4131 70.1139V72.5721C35.4131 72.6434 35.4487 72.679 35.52 72.679H37.4794H39.5814H42.0753C42.1822 72.679 42.2891 72.7146 42.396 72.8215C42.4672 72.8928 42.5385 72.9997 42.5385 73.1422V75.4223C42.5385 75.7073 42.396 75.8498 42.1109 75.8498H39.7952H37.9426H35.5556C35.4843 75.8498 35.4487 75.8855 35.4487 75.9567V78.415C35.4487 78.4862 35.4843 78.5218 35.5556 78.5218H37.4082H40.009H43.2866C43.3935 78.5218 43.5004 78.5575 43.6073 78.6287C43.6785 78.7 43.7498 78.8069 43.7498 78.9494V81.7639C43.7498 81.8708 43.7142 81.9776 43.6073 82.0845C43.536 82.1558 43.4291 82.227 43.2866 82.227H40.8284H35.2349H34.5224C34.4155 82.227 34.273 82.2271 34.0949 82.1914C33.9524 82.1558 33.8099 82.1202 33.703 82.0489L31.601 79.9826C31.5297 79.8757 31.4941 79.7332 31.4585 79.5906C31.4229 79.4481 31.4229 79.3056 31.4229 79.1988V78.4862V70.8264V69.437C31.4229 69.3301 31.4229 69.1876 31.4585 69.0451C31.4941 68.9026 31.5297 68.7601 31.601 68.6532L33.703 66.5868C33.8099 66.5512 33.9524 66.5156 34.0949 66.4443C34.2374 66.4087 34.3799 66.373 34.5224 66.373H35.0924H41.4697H43.3223C43.4291 66.373 43.536 66.4087 43.6429 66.5156C43.7142 66.5868 43.7854 66.6937 43.7854 66.8362V69.6864C43.7854 69.7932 43.7498 69.9001 43.6429 69.9714C43.5716 70.0426 43.4648 70.0783 43.3223 70.0783H41.5409H37.8713H35.5912C35.4487 70.007 35.4131 70.0426 35.4131 70.1139Z" fill="#77B82D"/>
<path d="M81.9062 70.1139V72.5721C81.9062 72.6434 81.9419 72.679 82.0131 72.679H83.9726H86.0746H88.5685C88.6754 72.679 88.7822 72.7146 88.8891 72.8215C88.9604 72.8928 89.0316 72.9997 89.0316 73.1422V75.4223C89.0316 75.7073 88.8891 75.8498 88.6041 75.8498H86.2884H84.4357H82.0487C81.9775 75.8498 81.9419 75.8855 81.9419 75.9567V78.415C81.9419 78.4862 81.9775 78.5218 82.0487 78.5218H83.9013H86.5021H89.7798C89.8867 78.5218 89.9936 78.5575 90.1004 78.6287C90.1717 78.7 90.2429 78.8069 90.2429 78.9494V81.7639C90.2429 81.8708 90.2073 81.9776 90.1004 82.0845C90.0292 82.1558 89.9223 82.227 89.7798 82.227H87.3215H81.7281H81.0156C80.9087 82.227 80.7662 82.2271 80.588 82.1914C80.4455 82.1558 80.303 82.1202 80.1961 82.0489L78.0942 79.9826C78.0229 79.8757 77.9873 79.7332 77.9516 79.5906C77.916 79.4481 77.916 79.3056 77.916 79.1988V78.4862V70.8264V69.437C77.916 69.3301 77.916 69.1876 77.9516 69.0451C77.9873 68.9026 78.0229 68.7601 78.0942 68.6532L80.1961 66.5868C80.303 66.5512 80.4455 66.5156 80.588 66.4443C80.7305 66.4087 80.873 66.373 81.0156 66.373H81.55H87.9272H89.7798C89.8867 66.373 89.9936 66.4087 90.1004 66.5156C90.1717 66.5868 90.2429 66.6937 90.2429 66.8362V69.6864C90.2429 69.7932 90.2073 69.9001 90.1004 69.9714C90.0292 70.0426 89.9223 70.0783 89.7798 70.0783H87.9984H84.3289H82.0487C81.9419 70.007 81.9062 70.0426 81.9062 70.1139Z" fill="#77B82D"/>
<path d="M67.4055 66.4443C67.4768 66.5155 67.548 66.6224 67.548 66.7649V81.7639C67.548 81.8708 67.5124 81.9776 67.4055 82.0845C67.3343 82.1558 67.2274 82.227 67.0849 82.227H64.0566H63.7716C63.6647 82.227 63.5222 82.1914 63.4153 82.1201C63.3084 82.0489 63.2015 81.9776 63.1303 81.8708L58.0356 72.6434V81.7995C58.0356 82.0845 57.8931 82.227 57.6081 82.227H54.4373C54.1523 82.227 54.0098 82.0845 54.0098 81.7995V66.8005C54.0098 66.5155 54.1523 66.373 54.4373 66.373H57.715C57.8218 66.373 57.9644 66.4086 58.0712 66.4799C58.1781 66.5512 58.285 66.6224 58.3562 66.7293L63.4509 75.9923V66.8005C63.4509 66.6937 63.4865 66.5868 63.5934 66.4799C63.6647 66.4086 63.7716 66.3374 63.9141 66.3374H67.1205C67.2274 66.3374 67.3343 66.373 67.4055 66.4443Z" fill="#77B82D"/>
<path d="M114.54 81.7995C114.612 81.9064 114.612 81.9776 114.576 82.0489C114.54 82.1201 114.434 82.1558 114.327 82.1558H110.657C110.55 82.1558 110.408 82.1201 110.301 82.0489C110.194 81.9776 110.087 81.9064 110.016 81.7995L107.451 77.4886C107.415 77.4174 107.379 77.3818 107.273 77.3818H104.672C104.601 77.3818 104.565 77.4174 104.565 77.4886V81.6926C104.565 81.9776 104.422 82.1201 104.137 82.1201H100.967C100.682 82.1201 100.539 81.9776 100.539 81.6926V74.3178V70.4701V66.7293C100.539 66.6224 100.575 66.5155 100.682 66.4086C100.753 66.3374 100.86 66.3018 101.002 66.3018H110.978C111.085 66.3018 111.227 66.3374 111.405 66.373C111.583 66.4086 111.69 66.4443 111.797 66.4799L113.899 68.5463C113.935 68.6531 113.97 68.7957 114.042 68.9382C114.077 69.0807 114.113 69.2232 114.113 69.33V72.394V74.0328V74.2466C114.113 74.3534 114.077 74.4603 114.042 74.5672C114.006 74.7097 113.935 74.8166 113.864 74.9235L111.762 77.0611L114.54 81.7995ZM109.98 70.007H104.422V73.8547H107.059H109.481H109.553H109.98V73.5697V71.0045V70.007Z" fill="#77B82D"/>
<path d="M138.091 73.6409C138.162 73.7122 138.233 73.819 138.233 73.9615V75.6004V78.1655V79.0918C138.233 79.1987 138.197 79.3412 138.162 79.4837C138.126 79.6262 138.091 79.7687 138.019 79.8756L135.917 81.942C135.81 82.0132 135.668 82.0488 135.525 82.0845C135.347 82.1201 135.205 82.1201 135.098 82.1201H133.317H129.148H127.83C127.723 82.1201 127.581 82.1201 127.402 82.0845C127.26 82.0488 127.117 82.0132 127.011 81.942L124.909 79.8756C124.837 79.7687 124.802 79.6262 124.766 79.4837C124.73 79.3412 124.73 79.1987 124.73 79.0918V78.9493V70.7195V69.33C124.73 69.2231 124.73 69.0806 124.766 68.9381C124.802 68.7956 124.837 68.6531 124.909 68.5462L127.011 66.4799C127.117 66.4442 127.26 66.4086 127.402 66.3374C127.545 66.3017 127.688 66.2661 127.83 66.2661H128.436H135.062H136.915C137.022 66.2661 137.129 66.3017 137.236 66.4086C137.307 66.4799 137.378 66.5868 137.378 66.7293V69.7219C137.378 69.8288 137.342 69.9357 137.236 70.0426C137.164 70.1138 137.057 70.1494 136.915 70.1494H134.991H131.891H129.184C129.077 70.1494 128.97 70.1851 128.863 70.2563C128.792 70.3276 128.721 70.4345 128.721 70.5413V73.3202V75.0303V77.8805C128.721 77.9874 128.756 78.0943 128.863 78.2011C128.934 78.2724 129.041 78.308 129.184 78.308H133.744C133.851 78.308 133.958 78.2724 134.029 78.2011C134.1 78.1299 134.136 78.023 134.136 77.8805V73.9259C134.136 73.819 134.172 73.7121 134.278 73.6053C134.35 73.534 134.457 73.4984 134.599 73.4984H137.806C137.912 73.534 138.019 73.5696 138.091 73.6409Z" fill="#77B82D"/>
<path d="M161.498 66.4086C161.533 66.4799 161.533 66.5511 161.462 66.658L156.296 75.8854C156.225 75.9923 156.189 76.1348 156.153 76.2773C156.118 76.4198 156.082 76.5623 156.082 76.6692V81.6926C156.082 81.7995 156.047 81.9064 155.975 82.0133C155.904 82.0845 155.797 82.1558 155.69 82.1558H152.484C152.377 82.1558 152.27 82.1201 152.163 82.0133C152.092 81.942 152.021 81.8351 152.021 81.6926V76.6692C152.021 76.5623 151.985 76.4198 151.949 76.2773C151.914 76.1348 151.878 75.9923 151.807 75.8854L146.641 66.658C146.57 66.5511 146.57 66.4799 146.605 66.4086C146.641 66.3374 146.748 66.3018 146.855 66.3018H150.311C150.418 66.3018 150.56 66.3374 150.667 66.4086C150.774 66.4799 150.881 66.5511 150.916 66.658L154.016 72.6077L157.115 66.658C157.187 66.5511 157.258 66.4799 157.4 66.4086C157.507 66.3374 157.65 66.3018 157.757 66.3018H161.212C161.391 66.3374 161.462 66.3374 161.498 66.4086Z" fill="#77B82D"/>
</svg>
